<mxfile host="app.diagrams.net" modified="2023-11-12T07:02:25.040Z" agent="Mozilla/5.0 (Macintosh; Intel Mac OS X 10_15_7) AppleWebKit/537.36 (KHTML, like Gecko) Chrome/118.0.0.0 Safari/537.36" etag="-FGhSrOuffcKzszNNnXC" version="22.1.0" type="github">
  <diagram name="第 1 页" id="YJUpS3gSUK--o9LYOzst">
    <mxGraphModel dx="784" dy="1156" grid="1" gridSize="10" guides="1" tooltips="1" connect="1" arrows="1" fold="1" page="1" pageScale="1" pageWidth="827" pageHeight="1169" math="0" shadow="0">
      <root>
        <mxCell id="0" />
        <mxCell id="1" parent="0" />
        <mxCell id="OuBIB9QVf9Ivvn7iUkM7-1" value="C/S 架构处理请求流程-1" style="swimlane;childLayout=stackLayout;resizeParent=1;resizeParentMax=0;startSize=20;html=1;" vertex="1" parent="1">
          <mxGeometry x="150" y="50" width="430" height="970" as="geometry" />
        </mxCell>
        <mxCell id="OuBIB9QVf9Ivvn7iUkM7-2" value="Client" style="swimlane;startSize=20;html=1;" vertex="1" parent="OuBIB9QVf9Ivvn7iUkM7-1">
          <mxGeometry y="20" width="230" height="950" as="geometry" />
        </mxCell>
        <mxCell id="OuBIB9QVf9Ivvn7iUkM7-10" value="" style="edgeStyle=orthogonalEdgeStyle;rounded=0;orthogonalLoop=1;jettySize=auto;html=1;" edge="1" parent="OuBIB9QVf9Ivvn7iUkM7-2" source="OuBIB9QVf9Ivvn7iUkM7-5" target="OuBIB9QVf9Ivvn7iUkM7-9">
          <mxGeometry relative="1" as="geometry" />
        </mxCell>
        <mxCell id="OuBIB9QVf9Ivvn7iUkM7-5" value="1.用户在客户端发起请求" style="rounded=0;whiteSpace=wrap;html=1;" vertex="1" parent="OuBIB9QVf9Ivvn7iUkM7-2">
          <mxGeometry x="32.5" y="40" width="105" height="60" as="geometry" />
        </mxCell>
        <mxCell id="OuBIB9QVf9Ivvn7iUkM7-9" value="2.客户端承担部分对用户请求的处理（承担了浏览器的作用）" style="rounded=0;whiteSpace=wrap;html=1;" vertex="1" parent="OuBIB9QVf9Ivvn7iUkM7-2">
          <mxGeometry x="33" y="180" width="105" height="60" as="geometry" />
        </mxCell>
        <mxCell id="OuBIB9QVf9Ivvn7iUkM7-22" value="" style="edgeStyle=orthogonalEdgeStyle;rounded=0;orthogonalLoop=1;jettySize=auto;html=1;" edge="1" parent="OuBIB9QVf9Ivvn7iUkM7-2" source="OuBIB9QVf9Ivvn7iUkM7-18" target="OuBIB9QVf9Ivvn7iUkM7-21">
          <mxGeometry relative="1" as="geometry" />
        </mxCell>
        <mxCell id="OuBIB9QVf9Ivvn7iUkM7-18" value="7.客户端处理响应" style="rounded=0;whiteSpace=wrap;html=1;" vertex="1" parent="OuBIB9QVf9Ivvn7iUkM7-2">
          <mxGeometry x="33" y="700" width="105" height="60" as="geometry" />
        </mxCell>
        <mxCell id="OuBIB9QVf9Ivvn7iUkM7-21" value="8.渲染界面" style="rounded=0;whiteSpace=wrap;html=1;" vertex="1" parent="OuBIB9QVf9Ivvn7iUkM7-2">
          <mxGeometry x="32.5" y="840" width="105" height="60" as="geometry" />
        </mxCell>
        <mxCell id="OuBIB9QVf9Ivvn7iUkM7-3" value="Server" style="swimlane;startSize=20;html=1;" vertex="1" parent="OuBIB9QVf9Ivvn7iUkM7-1">
          <mxGeometry x="230" y="20" width="200" height="950" as="geometry" />
        </mxCell>
        <mxCell id="OuBIB9QVf9Ivvn7iUkM7-15" value="" style="edgeStyle=orthogonalEdgeStyle;rounded=0;orthogonalLoop=1;jettySize=auto;html=1;" edge="1" parent="OuBIB9QVf9Ivvn7iUkM7-3" source="OuBIB9QVf9Ivvn7iUkM7-11" target="OuBIB9QVf9Ivvn7iUkM7-14">
          <mxGeometry relative="1" as="geometry" />
        </mxCell>
        <mxCell id="OuBIB9QVf9Ivvn7iUkM7-11" value="3.服务器接收请求" style="rounded=0;whiteSpace=wrap;html=1;" vertex="1" parent="OuBIB9QVf9Ivvn7iUkM7-3">
          <mxGeometry x="70" y="180" width="105" height="60" as="geometry" />
        </mxCell>
        <mxCell id="OuBIB9QVf9Ivvn7iUkM7-13" value="通过 TCP 请求通信" style="text;html=1;align=center;verticalAlign=middle;resizable=0;points=[];autosize=1;strokeColor=none;fillColor=none;" vertex="1" parent="OuBIB9QVf9Ivvn7iUkM7-3">
          <mxGeometry x="-70" y="210" width="130" height="30" as="geometry" />
        </mxCell>
        <mxCell id="OuBIB9QVf9Ivvn7iUkM7-17" value="" style="edgeStyle=orthogonalEdgeStyle;rounded=0;orthogonalLoop=1;jettySize=auto;html=1;" edge="1" parent="OuBIB9QVf9Ivvn7iUkM7-3" source="OuBIB9QVf9Ivvn7iUkM7-14" target="OuBIB9QVf9Ivvn7iUkM7-16">
          <mxGeometry relative="1" as="geometry" />
        </mxCell>
        <mxCell id="OuBIB9QVf9Ivvn7iUkM7-14" value="4.中间件处理请求" style="rounded=0;whiteSpace=wrap;html=1;" vertex="1" parent="OuBIB9QVf9Ivvn7iUkM7-3">
          <mxGeometry x="70" y="320" width="105" height="60" as="geometry" />
        </mxCell>
        <mxCell id="OuBIB9QVf9Ivvn7iUkM7-24" value="" style="edgeStyle=orthogonalEdgeStyle;rounded=0;orthogonalLoop=1;jettySize=auto;html=1;" edge="1" parent="OuBIB9QVf9Ivvn7iUkM7-3" source="OuBIB9QVf9Ivvn7iUkM7-16" target="OuBIB9QVf9Ivvn7iUkM7-23">
          <mxGeometry relative="1" as="geometry" />
        </mxCell>
        <mxCell id="OuBIB9QVf9Ivvn7iUkM7-16" value="5.业务逻辑处理" style="rounded=0;whiteSpace=wrap;html=1;" vertex="1" parent="OuBIB9QVf9Ivvn7iUkM7-3">
          <mxGeometry x="70" y="460" width="105" height="60" as="geometry" />
        </mxCell>
        <mxCell id="OuBIB9QVf9Ivvn7iUkM7-20" value="通过 TCP 请求通信" style="text;html=1;align=center;verticalAlign=middle;resizable=0;points=[];autosize=1;strokeColor=none;fillColor=none;" vertex="1" parent="OuBIB9QVf9Ivvn7iUkM7-3">
          <mxGeometry x="-60" y="500" width="130" height="30" as="geometry" />
        </mxCell>
        <mxCell id="OuBIB9QVf9Ivvn7iUkM7-23" value="6.生成响应" style="rounded=0;whiteSpace=wrap;html=1;" vertex="1" parent="OuBIB9QVf9Ivvn7iUkM7-3">
          <mxGeometry x="70" y="600" width="105" height="60" as="geometry" />
        </mxCell>
        <mxCell id="OuBIB9QVf9Ivvn7iUkM7-12" value="" style="edgeStyle=orthogonalEdgeStyle;rounded=0;orthogonalLoop=1;jettySize=auto;html=1;" edge="1" parent="OuBIB9QVf9Ivvn7iUkM7-1" source="OuBIB9QVf9Ivvn7iUkM7-9" target="OuBIB9QVf9Ivvn7iUkM7-11">
          <mxGeometry relative="1" as="geometry" />
        </mxCell>
        <mxCell id="OuBIB9QVf9Ivvn7iUkM7-26" value="" style="edgeStyle=orthogonalEdgeStyle;rounded=0;orthogonalLoop=1;jettySize=auto;html=1;" edge="1" parent="OuBIB9QVf9Ivvn7iUkM7-1" source="OuBIB9QVf9Ivvn7iUkM7-23" target="OuBIB9QVf9Ivvn7iUkM7-18">
          <mxGeometry relative="1" as="geometry">
            <mxPoint x="220" y="650" as="targetPoint" />
          </mxGeometry>
        </mxCell>
      </root>
    </mxGraphModel>
  </diagram>
</mxfile>
